mtllib EffKirbyFinalcutterA2.mtl

v 0.000000 3.245727 -17.848215
v 0.000000 7.234943 -18.768690
v 0.000000 1.592592 -19.980587
v 0.000000 8.040102 -16.512024
v 0.000000 4.510782 -15.824948
v 0.000000 8.548331 -14.403132
v 0.000000 5.387757 -13.910787
v 0.000000 8.758251 -12.443397
v 0.000000 5.874580 -12.105040
v 0.000000 8.671241 -10.631436
v 0.000000 5.974015 -10.407707
v 0.000000 8.287992 -8.969321
v 0.000000 5.684679 -8.820170
v 0.000000 7.607123 -7.454291
v 0.000000 5.006572 -7.339666
v 0.000000 6.629324 -6.088416
v 0.000000 3.939695 -5.968958
v 0.000000 5.354597 -4.871697
v 0.000000 12.065225 -16.522375
v 0.000000 12.187446 -14.356171
v 0.000000 12.076266 -12.336359
v 0.000000 11.732377 -10.462250
v 0.000000 11.155088 -8.735916
v 0.000000 10.345090 -7.155285
v 0.000000 9.302381 -5.721738
v 0.000000 8.026272 -4.434585
v 0.000000 6.516763 -3.293826

vt 0.000000 0.875000
vt 0.500000 1.000000
vt 0.000000 1.000000
vt 0.500000 0.875000
vt 0.000000 0.750000
vt 0.500000 0.750000
vt 0.000000 0.625000
vt 0.500000 0.625000
vt 0.000000 0.500000
vt 0.500000 0.500000
vt 0.000000 0.375000
vt 0.500000 0.375000
vt 0.000000 0.250000
vt 0.500000 0.250000
vt 0.000000 0.125000
vt 0.500000 0.125000
vt 0.000000 0.000000
vt 0.500000 0.000000
vt 1.000000 1.000000
vt 1.000000 0.875000
vt 1.000000 0.750000
vt 1.000000 0.625000
vt 1.000000 0.500000
vt 1.000000 0.375000
vt 1.000000 0.250000
vt 1.000000 0.125000
vt 1.000000 0.000000

vn -1.000000 0.000000 0.000000
vn -1.000000 0.000000 0.000000
vn -1.000000 0.000000 0.000000
vn -1.000000 0.000000 0.000000
vn -1.000000 0.000000 0.000000
vn -1.000000 0.000000 0.000000
vn -1.000000 0.000000 0.000000
vn -1.000000 0.000000 0.000000
vn -1.000000 0.000000 0.000000
vn -1.000000 0.000000 0.000000
vn -1.000000 0.000000 0.000000
vn -1.000000 0.000000 0.000000
vn -1.000000 0.000000 0.000000
vn -1.000000 0.000000 0.000000
vn -1.000000 0.000000 0.000000
vn -1.000000 0.000000 0.000000
vn -1.000000 0.000000 0.000000
vn -1.000000 0.000000 0.000000
vn -1.000000 0.000000 0.000000
vn -1.000000 0.000000 0.000000
vn -1.000000 0.000000 0.000000
vn -1.000000 0.000000 0.000000
vn -1.000000 0.000000 0.000000
vn -1.000000 0.000000 0.000000
vn -1.000000 0.000000 0.000000
vn -1.000000 0.000000 0.000000
vn -1.000000 0.000000 0.000000

g polygon0
s 1
usemtl mat1
f 1/1/1 2/2/2 3/3/3
f 1/1/1 4/4/4 2/2/2
f 5/5/5 4/4/4 1/1/1
f 5/5/5 6/6/6 4/4/4
f 7/7/7 6/6/6 5/5/5
f 7/7/7 8/8/8 6/6/6
f 9/9/9 8/8/8 7/7/7
f 9/9/9 10/10/10 8/8/8
f 11/11/11 10/10/10 9/9/9
f 11/11/11 12/12/12 10/10/10
f 13/13/13 12/12/12 11/11/11
f 13/13/13 14/14/14 12/12/12
f 15/15/15 14/14/14 13/13/13
f 15/15/15 16/16/16 14/14/14
f 17/17/17 16/16/16 15/15/15
f 17/17/17 18/18/18 16/16/16
f 4/4/4 19/19/19 2/2/2
f 4/4/4 20/20/20 19/19/19
f 6/6/6 20/20/20 4/4/4
f 6/6/6 21/21/21 20/20/20
f 8/8/8 21/21/21 6/6/6
f 8/8/8 22/22/22 21/21/21
f 10/10/10 22/22/22 8/8/8
f 10/10/10 23/23/23 22/22/22
f 12/12/12 23/23/23 10/10/10
f 12/12/12 24/24/24 23/23/23
f 14/14/14 24/24/24 12/12/12
f 14/14/14 25/25/25 24/24/24
f 16/16/16 25/25/25 14/14/14
f 16/16/16 26/26/26 25/25/25
f 18/18/18 26/26/26 16/16/16
f 18/18/18 27/27/27 26/26/26

v 0.000000 -9.216724 -15.751431
v 0.000000 -7.427611 -18.207819
v 0.000000 -11.457191 -16.276609
v 0.000000 -5.341818 -17.210127
v 0.000000 -7.229269 -15.035870
v 0.000000 -3.536295 -16.086658
v 0.000000 -5.493863 -14.130096
v 0.000000 -2.012342 -14.839172
v 0.000000 -4.011468 -13.033942
v 0.000000 -0.769790 -13.466703
v 0.000000 -2.781123 -11.747577
v 0.000000 0.191362 -11.969254
v 0.000000 -1.803789 -10.270829
v 0.000000 0.871905 -10.347953
v 0.000000 -1.079466 -8.603700
v 0.000000 1.271048 -8.601671
v 0.000000 -0.607193 -6.746359
v 0.000000 1.388791 -6.730407
v 0.000000 -3.590122 -19.496300
v 0.000000 -1.576737 -18.121912
v 0.000000 0.104397 -16.669107
v 0.000000 1.451526 -15.136585
v 0.000000 2.466574 -13.524685
v 0.000000 3.149201 -11.835329
v 0.000000 3.497823 -10.066257
v 0.000000 3.514364 -8.217805
v 0.000000 3.196730 -6.290597

vt 0.000000 0.875000
vt 0.500000 1.000000
vt 0.000000 1.000000
vt 0.500000 0.875000
vt 0.000000 0.750000
vt 0.500000 0.750000
vt 0.000000 0.625000
vt 0.500000 0.625000
vt 0.000000 0.500000
vt 0.500000 0.500000
vt 0.000000 0.375000
vt 0.500000 0.375000
vt 0.000000 0.250000
vt 0.500000 0.250000
vt 0.000000 0.125000
vt 0.500000 0.125000
vt 0.000000 0.000000
vt 0.500000 0.000000
vt 1.000000 1.000000
vt 1.000000 0.875000
vt 1.000000 0.750000
vt 1.000000 0.625000
vt 1.000000 0.500000
vt 1.000000 0.375000
vt 1.000000 0.250000
vt 1.000000 0.125000
vt 1.000000 0.000000

vn -1.000000 0.000000 -0.000000
vn -1.000000 0.000000 -0.000000
vn -1.000000 0.000000 -0.000000
vn -1.000000 0.000000 -0.000000
vn -1.000000 0.000000 -0.000000
vn -1.000000 0.000000 -0.000000
vn -1.000000 0.000000 -0.000000
vn -1.000000 0.000000 -0.000000
vn -1.000000 0.000000 -0.000000
vn -1.000000 0.000000 -0.000000
vn -1.000000 0.000000 -0.000000
vn -1.000000 0.000000 -0.000000
vn -1.000000 0.000000 -0.000000
vn -1.000000 0.000000 -0.000000
vn -1.000000 0.000000 -0.000000
vn -1.000000 0.000000 -0.000000
vn -1.000000 0.000000 -0.000000
vn -1.000000 0.000000 -0.000000
vn -1.000000 0.000000 -0.000000
vn -1.000000 0.000000 -0.000000
vn -1.000000 0.000000 -0.000000
vn -1.000000 0.000000 -0.000000
vn -1.000000 0.000000 -0.000000
vn -1.000000 0.000000 -0.000000
vn -1.000000 0.000000 -0.000000
vn -1.000000 0.000000 -0.000000
vn -1.000000 0.000000 -0.000000

g polygon1
s 1
usemtl mat1
f 28/28/28 29/29/29 30/30/30
f 28/28/28 31/31/31 29/29/29
f 32/32/32 31/31/31 28/28/28
f 32/32/32 33/33/33 31/31/31
f 34/34/34 33/33/33 32/32/32
f 34/34/34 35/35/35 33/33/33
f 36/36/36 35/35/35 34/34/34
f 36/36/36 37/37/37 35/35/35
f 38/38/38 37/37/37 36/36/36
f 38/38/38 39/39/39 37/37/37
f 40/40/40 39/39/39 38/38/38
f 40/40/40 41/41/41 39/39/39
f 42/42/42 41/41/41 40/40/40
f 42/42/42 43/43/43 41/41/41
f 44/44/44 43/43/43 42/42/42
f 44/44/44 45/45/45 43/43/43
f 31/31/31 46/46/46 29/29/29
f 31/31/31 47/47/47 46/46/46
f 33/33/33 47/47/47 31/31/31
f 33/33/33 48/48/48 47/47/47
f 35/35/35 48/48/48 33/33/33
f 35/35/35 49/49/49 48/48/48
f 37/37/37 49/49/49 35/35/35
f 37/37/37 50/50/50 49/49/49
f 39/39/39 50/50/50 37/37/37
f 39/39/39 51/51/51 50/50/50
f 41/41/41 51/51/51 39/39/39
f 41/41/41 52/52/52 51/51/51
f 43/43/43 52/52/52 41/41/41
f 43/43/43 53/53/53 52/52/52
f 45/45/45 53/53/53 43/43/43
f 45/45/45 54/54/54 53/53/53

v 0.000000 -16.281090 -8.265985
v 0.000000 -16.248430 -10.998552
v 0.000000 -18.581060 -7.442300
v 0.000000 -13.954323 -11.199949
v 0.000000 -14.122994 -8.770184
v 0.000000 -11.836949 -11.163377
v 0.000000 -12.106148 -8.955642
v 0.000000 -9.896070 -10.886083
v 0.000000 -10.231925 -8.822241
v 0.000000 -8.131806 -10.369442
v 0.000000 -8.498322 -8.370849
v 0.000000 -6.543407 -9.612828
v 0.000000 -6.906717 -7.601346
v 0.000000 -5.132371 -8.617496
v 0.000000 -5.456239 -6.511727
v 0.000000 -3.897202 -7.382191
v 0.000000 -4.147758 -5.103997
v 0.000000 -2.838646 -5.907539
v 0.000000 -13.796260 -13.782672
v 0.000000 -11.586486 -13.561481
v 0.000000 -9.563430 -13.145117
v 0.000000 -7.728467 -12.533459
v 0.000000 -6.080222 -11.726627
v 0.000000 -4.620697 -10.723753
v 0.000000 -3.347889 -9.525706
v 0.000000 -2.262427 -8.131737
v 0.000000 -1.365058 -6.542474

vt 0.000000 0.875000
vt 0.500000 1.000000
vt 0.000000 1.000000
vt 0.500000 0.875000
vt 0.000000 0.750000
vt 0.500000 0.750000
vt 0.000000 0.625000
vt 0.500000 0.625000
vt 0.000000 0.500000
vt 0.500000 0.500000
vt 0.000000 0.375000
vt 0.500000 0.375000
vt 0.000000 0.250000
vt 0.500000 0.250000
vt 0.000000 0.125000
vt 0.500000 0.125000
vt 0.000000 0.000000
vt 0.500000 0.000000
vt 1.000000 1.000000
vt 1.000000 0.875000
vt 1.000000 0.750000
vt 1.000000 0.625000
vt 1.000000 0.500000
vt 1.000000 0.375000
vt 1.000000 0.250000
vt 1.000000 0.125000
vt 1.000000 0.000000

vn -1.000000 0.000000 -0.000000
vn -1.000000 0.000000 -0.000000
vn -1.000000 0.000000 -0.000000
vn -1.000000 0.000000 -0.000000
vn -1.000000 0.000000 -0.000000
vn -1.000000 0.000000 -0.000000
vn -1.000000 0.000000 -0.000000
vn -1.000000 0.000000 -0.000000
vn -1.000000 0.000000 -0.000000
vn -1.000000 0.000000 -0.000000
vn -1.000000 0.000000 -0.000000
vn -1.000000 0.000000 -0.000000
vn -1.000000 0.000000 -0.000000
vn -1.000000 0.000000 -0.000000
vn -1.000000 0.000000 -0.000000
vn -1.000000 0.000000 -0.000000
vn -1.000000 0.000000 -0.000000
vn -1.000000 0.000000 -0.000000
vn -1.000000 0.000000 -0.000000
vn -1.000000 0.000000 -0.000000
vn -1.000000 0.000000 -0.000000
vn -1.000000 0.000000 -0.000000
vn -1.000000 0.000000 -0.000000
vn -1.000000 0.000000 -0.000000
vn -1.000000 0.000000 -0.000000
vn -1.000000 0.000000 -0.000000
vn -1.000000 0.000000 -0.000000

g polygon2
s 1
usemtl mat1
f 55/55/55 56/56/56 57/57/57
f 55/55/55 58/58/58 56/56/56
f 59/59/59 58/58/58 55/55/55
f 59/59/59 60/60/60 58/58/58
f 61/61/61 60/60/60 59/59/59
f 61/61/61 62/62/62 60/60/60
f 63/63/63 62/62/62 61/61/61
f 63/63/63 64/64/64 62/62/62
f 65/65/65 64/64/64 63/63/63
f 65/65/65 66/66/66 64/64/64
f 67/67/67 66/66/66 65/65/65
f 67/67/67 68/68/68 66/66/66
f 69/69/69 68/68/68 67/67/67
f 69/69/69 70/70/70 68/68/68
f 71/71/71 70/70/70 69/69/69
f 71/71/71 72/72/72 70/70/70
f 58/58/58 73/73/73 56/56/56
f 58/58/58 74/74/74 73/73/73
f 60/60/60 74/74/74 58/58/58
f 60/60/60 75/75/75 74/74/74
f 62/62/62 75/75/75 60/60/60
f 62/62/62 76/76/76 75/75/75
f 64/64/64 76/76/76 62/62/62
f 64/64/64 77/77/77 76/76/76
f 66/66/66 77/77/77 64/64/64
f 66/66/66 78/78/78 77/77/77
f 68/68/68 78/78/78 66/66/66
f 68/68/68 79/79/79 78/78/78
f 70/70/70 79/79/79 68/68/68
f 70/70/70 80/80/80 79/79/79
f 72/72/72 80/80/80 70/70/70
f 72/72/72 81/81/81 80/80/80

v 0.000000 -18.927284 0.546538
v 0.000000 -19.963200 -1.215494
v 0.000000 -20.466688 2.287155
v 0.000000 -18.230829 -2.629456
v 0.000000 -17.313774 -0.875862
v 0.000000 -16.473795 -3.731487
v 0.000000 -15.626152 -1.980044
v 0.000000 -14.692013 -4.522560
v 0.000000 -13.866452 -2.765208
v 0.000000 -12.884592 -5.001618
v 0.000000 -12.032642 -3.232153
v 0.000000 -11.053309 -5.170776
v 0.000000 -10.124724 -3.380883
v 0.000000 -9.196389 -5.027918
v 0.000000 -8.144727 -3.210592
v 0.000000 -7.314720 -4.574103
v 0.000000 -6.090535 -2.723057
v 0.000000 -5.408300 -3.809330
v 0.000000 -18.985058 -4.496242
v 0.000000 -17.047173 -5.637346
v 0.000000 -15.146933 -6.460208
v 0.000000 -13.285142 -6.966859
v 0.000000 -11.462056 -7.154379
v 0.000000 -9.676446 -7.025603
v 0.000000 -7.929454 -6.578670
v 0.000000 -6.220025 -5.814466
v 0.000000 -4.549213 -4.732106

vt -0.005859 0.876953
vt 0.494141 1.001953
vt -0.005859 1.001953
vt 0.494141 0.876953
vt -0.005859 0.751953
vt 0.494141 0.751953
vt -0.005859 0.626953
vt 0.494141 0.626953
vt -0.005859 0.501953
vt 0.494141 0.501953
vt -0.005859 0.376953
vt 0.494141 0.376953
vt -0.005859 0.251953
vt 0.494141 0.251953
vt -0.005859 0.126953
vt 0.494141 0.126953
vt -0.005859 0.001953
vt 0.494141 0.001953
vt 0.994141 1.001953
vt 0.994141 0.876953
vt 0.994141 0.751953
vt 0.994141 0.626953
vt 0.994141 0.501953
vt 0.994141 0.376953
vt 0.994141 0.251953
vt 0.994141 0.126953
vt 0.994141 0.001953

vn -1.000000 0.000000 -0.000000
vn -1.000000 0.000000 -0.000000
vn -1.000000 0.000000 -0.000000
vn -1.000000 0.000000 -0.000000
vn -1.000000 0.000000 -0.000000
vn -1.000000 0.000000 -0.000000
vn -1.000000 0.000000 -0.000000
vn -1.000000 0.000000 -0.000000
vn -1.000000 0.000000 -0.000000
vn -1.000000 0.000000 -0.000000
vn -1.000000 0.000000 -0.000000
vn -1.000000 0.000000 -0.000000
vn -1.000000 0.000000 -0.000000
vn -1.000000 0.000000 -0.000000
vn -1.000000 0.000000 -0.000000
vn -1.000000 0.000000 -0.000000
vn -1.000000 0.000000 -0.000000
vn -1.000000 0.000000 -0.000000
vn -1.000000 0.000000 -0.000000
vn -1.000000 0.000000 -0.000000
vn -1.000000 0.000000 -0.000000
vn -1.000000 0.000000 -0.000000
vn -1.000000 0.000000 -0.000000
vn -1.000000 0.000000 -0.000000
vn -1.000000 0.000000 -0.000000
vn -1.000000 0.000000 -0.000000
vn -1.000000 0.000000 -0.000000

g polygon3
s 1
usemtl mat1
f 82/82/82 83/83/83 84/84/84
f 82/82/82 85/85/85 83/83/83
f 86/86/86 85/85/85 82/82/82
f 86/86/86 87/87/87 85/85/85
f 88/88/88 87/87/87 86/86/86
f 88/88/88 89/89/89 87/87/87
f 90/90/90 89/89/89 88/88/88
f 90/90/90 91/91/91 89/89/89
f 92/92/92 91/91/91 90/90/90
f 92/92/92 93/93/93 91/91/91
f 94/94/94 93/93/93 92/92/92
f 94/94/94 95/95/95 93/93/93
f 96/96/96 95/95/95 94/94/94
f 96/96/96 97/97/97 95/95/95
f 98/98/98 97/97/97 96/96/96
f 98/98/98 99/99/99 97/97/97
f 85/85/85 100/100/100 83/83/83
f 85/85/85 101/101/101 100/100/100
f 87/87/87 101/101/101 85/85/85
f 87/87/87 102/102/102 101/101/101
f 89/89/89 102/102/102 87/87/87
f 89/89/89 103/103/103 102/102/102
f 91/91/91 103/103/103 89/89/89
f 91/91/91 104/104/104 103/103/103
f 93/93/93 104/104/104 91/91/91
f 93/93/93 105/105/105 104/104/104
f 95/95/95 105/105/105 93/93/93
f 95/95/95 106/106/106 105/105/105
f 97/97/97 106/106/106 95/95/95
f 97/97/97 107/107/107 106/106/106
f 99/99/99 107/107/107 97/97/97
f 99/99/99 108/108/108 107/107/107

v 0.000000 23.505510 3.079681
v 0.000000 8.558211 -0.413720
v 0.000000 8.509307 1.125092
v 0.000000 23.647139 -1.422195
v 0.000000 8.305158 -1.932800
v 0.000000 22.907610 -5.865591
v 0.000000 7.761224 -3.373584
v 0.000000 21.314850 -10.079448
v 0.000000 6.945742 -4.680372
v 0.000000 18.931482 -13.901971
v 0.000000 5.891640 -5.803569
v 0.000000 15.847578 -17.185514
v 0.000000 4.638414 -6.698637
v 0.000000 12.182763 -19.805170
v 0.000000 3.234948 -7.332612
v 0.000000 8.077374 -21.658939
v 0.000000 1.735010 -7.679774
v 0.000000 3.689599 -22.675978
v 0.000000 0.196198 -7.728679
v 0.000000 -0.812277 -22.817608
v 0.000000 -1.322882 -7.475626
v 0.000000 -5.255673 -22.078077
v 0.000000 -2.763666 -6.931692
v 0.000000 -9.469529 -20.485317
v 0.000000 -4.070454 -6.116210
v 0.000000 -13.292052 -18.101950
v 0.000000 -5.193651 -5.062108
v 0.000000 -16.575596 -15.018046
v 0.000000 -6.088718 -3.808882
v 0.000000 -19.195253 -11.353231
v 0.000000 -6.722693 -2.405416
v 0.000000 -21.049023 -7.247843
v 0.000000 -7.069857 -0.905478
v 0.000000 -22.066059 -2.860067

vt 1.000000 0.499054
vt 0.000000 0.561340
vt 0.000000 0.499054
vt 1.000000 0.561340
vt 0.000000 0.614471
vt 1.000000 0.614471
vt 0.000000 0.664490
vt 1.000000 0.664490
vt 0.000000 0.707153
vt 1.000000 0.707153
vt 0.000000 0.750458
vt 1.000000 0.750458
vt 0.000000 0.785767
vt 1.000000 0.785767
vt 0.000000 0.817383
vt 1.000000 0.817383
vt 0.000000 0.845947
vt 1.000000 0.845947
vt 0.000000 0.872650
vt 1.000000 0.872650
vt 0.000000 0.899353
vt 1.000000 0.899353
vt 0.000000 0.919312
vt 1.000000 0.919312
vt 0.000000 0.937439
vt 1.000000 0.937439
vt 0.000000 0.953094
vt 1.000000 0.953094
vt 0.000000 0.968750
vt 1.000000 0.968750
vt 0.000000 0.984436
vt 1.000000 0.984436
vt 0.000000 1.000092
vt 1.000000 1.000092

vn -1.000000 0.000000 0.000000
vn -1.000000 0.000000 0.000000
vn -1.000000 0.000000 0.000000
vn -1.000000 0.000000 0.000000
vn -1.000000 0.000000 0.000000
vn -1.000000 0.000000 0.000000
vn -1.000000 0.000000 0.000000
vn -1.000000 0.000000 0.000000
vn -1.000000 0.000000 0.000000
vn -1.000000 0.000000 0.000000
vn -1.000000 0.000000 0.000000
vn -1.000000 0.000000 0.000000
vn -1.000000 0.000000 0.000000
vn -1.000000 0.000000 0.000000
vn -1.000000 0.000000 0.000000
vn -1.000000 0.000000 0.000000
vn -1.000000 0.000000 0.000000
vn -1.000000 0.000000 0.000000
vn -1.000000 0.000000 0.000000
vn -1.000000 0.000000 0.000000
vn -1.000000 0.000000 0.000000
vn -1.000000 0.000000 0.000000
vn -1.000000 0.000000 0.000000
vn -1.000000 0.000000 0.000000
vn -1.000000 0.000000 0.000000
vn -1.000000 0.000000 0.000000
vn -1.000000 0.000000 0.000000
vn -1.000000 0.000000 0.000000
vn -1.000000 0.000000 0.000000
vn -1.000000 0.000000 0.000000
vn -1.000000 0.000000 0.000000
vn -1.000000 0.000000 0.000000
vn -1.000000 0.000000 0.000000
vn -1.000000 0.000000 0.000000

g polygon4
s 1
usemtl mat2
f 109/109/109 110/110/110 111/111/111
f 109/109/109 112/112/112 110/110/110
f 112/112/112 113/113/113 110/110/110
f 112/112/112 114/114/114 113/113/113
f 114/114/114 115/115/115 113/113/113
f 114/114/114 116/116/116 115/115/115
f 116/116/116 117/117/117 115/115/115
f 116/116/116 118/118/118 117/117/117
f 118/118/118 119/119/119 117/117/117
f 118/118/118 120/120/120 119/119/119
f 120/120/120 121/121/121 119/119/119
f 120/120/120 122/122/122 121/121/121
f 122/122/122 123/123/123 121/121/121
f 122/122/122 124/124/124 123/123/123
f 124/124/124 125/125/125 123/123/123
f 124/124/124 126/126/126 125/125/125
f 126/126/126 127/127/127 125/125/125
f 126/126/126 128/128/128 127/127/127
f 128/128/128 129/129/129 127/127/127
f 128/128/128 130/130/130 129/129/129
f 130/130/130 131/131/131 129/129/129
f 130/130/130 132/132/132 131/131/131
f 132/132/132 133/133/133 131/131/131
f 132/132/132 134/134/134 133/133/133
f 134/134/134 135/135/135 133/133/133
f 134/134/134 136/136/136 135/135/135
f 136/136/136 137/137/137 135/135/135
f 136/136/136 138/138/138 137/137/137
f 138/138/138 139/139/139 137/137/137
f 138/138/138 140/140/140 139/139/139
f 140/140/140 141/141/141 139/139/139
f 140/140/140 142/142/142 141/141/141

