mtllib WpnKirbyStoneDosun.mtl

v -4.692000 7.507199 2.815201
v -2.815200 7.507199 4.692001
v -2.815200 9.383999 2.815202
v -4.692000 1.876799 2.815199
v -4.692000 7.507201 -2.815199
v -4.692000 1.876801 -2.815201
v -2.815200 1.876802 -4.692001
v -2.815200 0.000000 -2.815202
v 4.692000 7.507199 2.815202
v 2.815200 9.383999 2.815203
v 2.815200 7.507199 4.692002
v 4.692000 7.507201 -2.815199
v 4.692000 1.876801 -2.815201
v 2.815200 7.507202 -4.691998
v 2.815200 1.876802 -4.692001
v 2.815200 0.000000 -2.815202
v 4.692000 1.876799 2.815200
v 2.815200 1.876798 4.691999
v -2.815200 1.876798 4.691999
v -2.815200 0.000000 2.815199
v -2.815200 7.507202 -4.691999
v -2.815200 9.384001 -2.815198
v 2.815200 9.384001 -2.815198
v 2.815200 0.000000 2.815199

vt 0.400000 0.800000
vt 0.500000 0.800000
vt 0.400000 1.000000
vt 0.400000 0.200000
vt 0.100000 0.800000
vt 0.100000 0.200000
vt 0.000000 0.200000
vt 0.100000 0.000000
vt 0.400000 0.800000
vt 0.400000 1.000000
vt 0.500000 0.800000
vt 0.100000 0.800000
vt 0.100000 0.200000
vt 0.000000 0.800000
vt 0.000000 0.200000
vt 0.100000 0.000000
vt 0.400000 0.200000
vt 0.500000 0.200000
vt 0.500000 0.200000
vt 0.400000 0.000000
vt 0.000000 0.800000
vt 0.100000 1.000000
vt 0.100000 1.000000
vt 0.400000 0.000000

vn -0.854763 0.367001 0.367001
vn -0.367001 0.367001 0.854764
vn -0.367001 0.854763 0.367001
vn -0.854763 -0.367001 0.367001
vn -0.854763 0.367001 -0.367001
vn -0.854763 -0.367001 -0.367001
vn -0.367001 -0.367001 -0.854764
vn -0.367001 -0.854763 -0.367001
vn 0.854763 0.367001 0.367001
vn 0.367001 0.854763 0.367001
vn 0.367001 0.367001 0.854764
vn 0.854763 0.367001 -0.367001
vn 0.854763 -0.367001 -0.367001
vn 0.367001 0.367001 -0.854763
vn 0.367001 -0.367001 -0.854764
vn 0.367001 -0.854763 -0.367001
vn 0.854763 -0.367001 0.367001
vn 0.367001 -0.367001 0.854763
vn -0.367001 -0.367001 0.854763
vn -0.367001 -0.854764 0.367001
vn -0.367001 0.367001 -0.854763
vn -0.367001 0.854764 -0.367001
vn 0.367001 0.854764 -0.367001
vn 0.367001 -0.854764 0.367001

g polygon0
s 1
usemtl mat2
f 1/1/1 2/2/2 3/3/3
f 1/1/1 4/4/4 2/2/2
f 5/5/5 4/4/4 1/1/1
f 5/5/5 6/6/6 4/4/4
f 7/7/7 6/6/6 5/5/5
f 7/7/7 8/8/8 6/6/6
f 9/9/9 10/10/10 11/11/11
f 9/9/9 12/12/12 10/10/10
f 13/13/13 12/12/12 9/9/9
f 13/13/13 14/14/14 12/12/12
f 15/15/15 14/14/14 13/13/13
f 13/13/13 16/16/16 15/15/15
f 13/13/13 17/17/17 16/16/16
f 9/9/9 17/17/17 13/13/13
f 9/9/9 18/18/18 17/17/17
f 11/11/11 18/18/18 9/9/9
f 4/4/4 19/19/19 2/2/2
f 4/4/4 20/20/20 19/19/19
f 6/6/6 20/20/20 4/4/4
f 6/6/6 8/8/8 20/20/20
f 5/5/5 21/21/21 7/7/7
f 5/5/5 22/22/22 21/21/21
f 1/1/1 22/22/22 5/5/5
f 1/1/1 3/3/3 22/22/22
f 23/23/23 12/12/12 14/14/14
f 23/23/23 10/10/10 12/12/12
f 24/24/24 17/17/17 18/18/18
f 24/24/24 16/16/16 17/17/17

v 2.815200 1.876798 4.691999
v -2.815200 1.876798 4.691999
v 2.815200 0.000000 2.815199
v -2.815200 7.507199 4.692001
v 2.815200 7.507199 4.692002
v -2.815200 9.383999 2.815202
v 2.815200 9.383999 2.815203
v 2.815200 9.384001 -2.815198
v -2.815200 9.384001 -2.815198
v -2.815200 7.507202 -4.691999
v 2.815200 7.507202 -4.691998
v -2.815200 1.876802 -4.692001
v 2.815200 1.876802 -4.692001
v -2.815200 0.000000 -2.815202
v 2.815200 0.000000 -2.815202
v -2.815200 0.000000 2.815199
v -2.815200 0.000000 -2.815202
v 2.815200 0.000000 -2.815202

vt 0.836011 0.800000
vt 0.836011 0.200000
vt 0.913989 0.800000
vt 0.663989 0.200000
vt 0.663989 0.800000
vt 0.586011 0.200000
vt 0.586011 0.800000
vt 0.413990 0.800000
vt 0.413990 0.200000
vt 0.336010 0.200000
vt 0.336010 0.800000
vt 0.163989 0.200000
vt 0.163989 0.800000
vt 1.086010 0.200000
vt 1.086010 0.800000
vt 0.913989 0.200000
vt 0.086011 0.200000
vt 0.086011 0.800000

vn 0.367001 -0.367001 0.854763
vn -0.367001 -0.367001 0.854763
vn 0.367001 -0.854764 0.367001
vn -0.367001 0.367001 0.854764
vn 0.367001 0.367001 0.854764
vn -0.367001 0.854763 0.367001
vn 0.367001 0.854763 0.367001
vn 0.367001 0.854764 -0.367001
vn -0.367001 0.854764 -0.367001
vn -0.367001 0.367001 -0.854763
vn 0.367001 0.367001 -0.854763
vn -0.367001 -0.367001 -0.854764
vn 0.367001 -0.367001 -0.854764
vn -0.367001 -0.854763 -0.367001
vn 0.367001 -0.854763 -0.367001
vn -0.367001 -0.854764 0.367001
vn -0.367001 -0.854763 -0.367001
vn 0.367001 -0.854763 -0.367001

g polygon1
s 1
usemtl mat1
f 25/25/25 26/26/26 27/27/27
f 25/25/25 28/28/28 26/26/26
f 29/29/29 28/28/28 25/25/25
f 29/29/29 30/30/30 28/28/28
f 31/31/31 30/30/30 29/29/29
f 31/31/31 32/32/32 30/30/30
f 32/32/32 33/33/33 30/30/30
f 32/32/32 34/34/34 33/33/33
f 35/35/35 34/34/34 32/32/32
f 35/35/35 36/36/36 34/34/34
f 37/37/37 36/36/36 35/35/35
f 27/27/27 38/38/38 39/39/39
f 27/27/27 40/40/40 38/38/38
f 26/26/26 40/40/40 27/27/27
f 41/41/41 37/37/37 42/42/42
f 41/41/41 36/36/36 37/37/37

