mtllib WpnKirbyFinalcutter.mtl

v 0.277344 12.647463 -8.728513
v 0.277344 0.000006 -23.164063
v 0.277344 12.647465 -14.823239
v 0.277344 -0.000001 3.885742
v 0.000000 12.647463 -6.656247
v 0.000000 -0.000002 5.958984
v -0.277344 -0.000001 3.885742
v -0.277344 12.647463 -8.728513
v -0.277344 0.000006 -23.164063
v -0.277344 12.647465 -14.823239

vt 0.000000 0.375000
vt 1.000000 1.000000
vt 0.000000 1.000000
vt 1.000000 0.054688
vt 0.000000 0.000000
vt 1.000000 0.000000
vt 1.000000 0.054688
vt 0.000000 0.375000
vt 1.000000 1.000000
vt 0.000000 1.000000

vn 0.999938 0.007874 0.007874
vn 0.999938 0.007874 0.007874
vn 0.999938 0.007874 0.007874
vn 0.999938 0.007874 0.007874
vn 0.000000 0.706190 0.708022
vn 0.000000 0.706190 0.708022
vn -0.999938 0.007874 0.007874
vn -0.999938 0.007874 0.007874
vn -0.999938 0.007874 0.007874
vn -0.999938 0.007874 0.007874

g polygon0
s 1
usemtl mat1
f 1/1/1 2/2/2 3/3/3
f 1/1/1 4/4/4 2/2/2
f 5/5/5 4/4/4 1/1/1
f 5/5/5 6/6/6 4/4/4
f 7/7/7 6/6/6 5/5/5
f 8/8/8 7/7/7 5/5/5
f 8/8/8 9/9/9 7/7/7
f 10/10/10 9/9/9 8/8/8

v 0.277344 12.647463 -8.728513
v 0.277344 0.000006 -23.164063
v 0.277344 12.647465 -14.823239
v 0.277344 -0.000001 3.885742
v 0.000000 12.647463 -6.656247
v 0.000000 -0.000002 5.958984
v -0.277344 -0.000001 3.885742
v -0.277344 12.647463 -8.728513
v -0.277344 0.000006 -23.164063
v -0.277344 12.647465 -14.823239

vt 0.000000 0.375000
vt 1.000000 1.000000
vt 0.000000 1.000000
vt 1.000000 0.054688
vt 0.000000 0.000000
vt 1.000000 0.000000
vt 1.000000 0.054688
vt 0.000000 0.375000
vt 1.000000 1.000000
vt 0.000000 1.000000

vn 0.999938 0.007874 0.007874
vn 0.999938 0.007874 0.007874
vn 0.999938 0.007874 0.007874
vn 0.999938 0.007874 0.007874
vn 0.000000 0.706190 0.708022
vn 0.000000 0.706190 0.708022
vn -0.999938 0.007874 0.007874
vn -0.999938 0.007874 0.007874
vn -0.999938 0.007874 0.007874
vn -0.999938 0.007874 0.007874

g polygon1
s 1
usemtl mat2
f 11/11/11 12/12/12 13/13/13
f 11/11/11 14/14/14 12/12/12
f 15/15/15 14/14/14 11/11/11
f 15/15/15 16/16/16 14/14/14
f 17/17/17 16/16/16 15/15/15
f 18/18/18 17/17/17 15/15/15
f 18/18/18 19/19/19 17/17/17
f 20/20/20 19/19/19 18/18/18

