mtllib WpnKirbyStone100t.mtl

v -1.162150 -0.000001 5.842535
v -1.162154 0.000002 -5.842538
v 1.162155 -0.000001 5.842535
v -3.309532 0.000002 -4.953065
v -3.309530 0.000000 4.953064
v -4.953065 0.000002 -3.309532
v -4.953063 0.000000 3.309532
v 1.162155 -0.000001 5.842535
v 1.791151 6.807999 4.324218
v 0.000002 6.807998 4.680501
v 3.309532 -0.000001 4.953060
v 3.309613 6.807999 3.309613
v 4.953064 0.000000 3.309528
v 5.842536 0.000000 1.162150
v 4.953064 0.000000 -3.309532
v 5.842537 0.000000 -1.162153
v 4.953064 0.000000 3.309528
v 4.324218 6.808000 1.791149
v 5.842536 0.000000 1.162150
v 4.680500 6.808000 0.000002
v 5.842537 0.000000 -1.162153
v 4.324218 6.808001 -1.791148
v 4.953064 0.000000 -3.309532
v 3.309613 6.808002 -3.309612
v 3.309532 0.000002 -4.953066
v 1.791150 6.808002 -4.324216
v 1.162152 0.000002 -5.842538
v 0.000000 6.808002 -4.680498
v -1.162154 0.000002 -5.842538
v -1.791151 6.808002 -4.324216
v -3.309532 0.000002 -4.953065
v -3.309613 6.808002 -3.309611
v -4.953065 0.000002 -3.309532
v -4.324218 6.808001 -1.791147
v -5.842537 0.000000 -1.162152
v -4.680499 6.808000 0.000003
v -5.842537 0.000000 1.162153
v -4.324216 6.807999 1.791153
v -4.953063 0.000000 3.309532
v -3.309612 6.807999 3.309615
v -3.309530 0.000000 4.953064
v -1.791148 6.807998 4.324219
v -1.162150 -0.000001 5.842535
v 0.000002 6.807998 4.680501
v 1.162155 -0.000001 5.842535
v -5.842537 0.000000 -1.162152
v -5.842537 0.000000 1.162153
v 3.309532 0.000002 -4.953066
v 3.309532 -0.000001 4.953060
v 1.162152 0.000002 -5.842538
v 1.162155 -0.000001 5.842535

vt 1.937500 0.000000
vt 1.062500 0.000000
vt 2.062500 0.000000
vt 1.187500 0.000000
vt 1.812500 0.000000
vt 1.312500 0.000000
vt 1.687500 0.000000
vt 0.062500 0.000000
vt 0.125000 0.991842
vt 0.000000 0.991842
vt 0.187500 0.000000
vt 0.250000 0.991842
vt 0.312500 0.000000
vt 0.437500 0.000000
vt 0.687500 0.000000
vt 0.562500 0.000000
vt 0.312500 0.000000
vt 0.375000 0.991842
vt 0.437500 0.000000
vt 0.500000 0.991842
vt 0.562500 0.000000
vt 0.625000 0.991842
vt 0.687500 0.000000
vt 0.750000 0.991842
vt 0.812500 0.000000
vt 0.875000 0.991842
vt 0.937500 0.000000
vt 1.000000 0.991842
vt 1.062500 0.000000
vt 1.125000 0.991842
vt 1.187500 0.000000
vt 1.250000 0.991842
vt 1.312500 0.000000
vt 1.375000 0.991842
vt 1.437500 0.000000
vt 1.500000 0.991842
vt 1.562500 0.000000
vt 1.625000 0.991842
vt 1.687500 0.000000
vt 1.750000 0.991842
vt 1.812500 0.000000
vt 1.875000 0.991842
vt 1.937500 0.000000
vt 2.000000 0.991842
vt 2.062500 0.000000
vt 1.437500 0.000000
vt 1.562500 0.000000
vt 0.812500 0.000000
vt 0.187500 0.000000
vt 0.937500 0.000000
vt 0.062500 0.000000

vn 0.000000 -1.000000 0.000000
vn 0.000000 -1.000000 0.000000
vn 0.000000 -1.000000 0.000000
vn 0.000000 -1.000000 0.000000
vn 0.000000 -1.000000 0.000000
vn 0.000000 -1.000000 0.000000
vn 0.000000 -1.000000 0.000000
vn 0.191904 0.180017 0.964763
vn 0.287191 0.660910 0.693339
vn 0.000000 0.660910 0.750465
vn 0.546495 0.180017 0.817886
vn 0.530659 0.660910 0.530659
vn 0.817886 0.180017 0.546494
vn 0.000000 -1.000000 0.000000
vn 0.000000 -1.000000 0.000000
vn 0.000000 -1.000000 0.000000
vn 0.000000 -1.000000 0.000000
vn 0.693340 0.660910 0.287191
vn 0.964763 0.180017 0.191903
vn 0.881044 0.473034 0.000000
vn 0.964763 0.180018 -0.191903
vn 0.693340 0.660910 -0.287190
vn 0.817886 0.180018 -0.546494
vn 0.530659 0.660910 -0.530659
vn 0.546494 0.180018 -0.817886
vn 0.287190 0.660910 -0.693339
vn 0.191903 0.180018 -0.964763
vn 0.000000 0.660910 -0.750465
vn -0.191903 0.180018 -0.964763
vn -0.287191 0.660910 -0.693339
vn -0.546494 0.180018 -0.817886
vn -0.530659 0.660910 -0.530659
vn -0.817886 0.180018 -0.546494
vn -0.693340 0.660910 -0.287190
vn -0.964763 0.180018 -0.191903
vn -0.881044 0.473034 0.000000
vn -0.964762 0.180018 0.191904
vn -0.693339 0.660910 0.287191
vn -0.817886 0.180017 0.546494
vn -0.530659 0.660910 0.530659
vn -0.546494 0.180017 0.817887
vn -0.287190 0.660910 0.693340
vn -0.191903 0.180017 0.964763
vn 0.000000 0.660910 0.750465
vn 0.191904 0.180017 0.964763
vn 0.000000 -1.000000 0.000000
vn 0.000000 -1.000000 0.000000
vn 0.000000 -1.000000 0.000000
vn 0.000000 -1.000000 0.000000
vn 0.000000 -1.000000 0.000000
vn 0.000000 -1.000000 0.000000

g polygon0
s 1
usemtl mat2
f 1/1/1 2/2/2 3/3/3
f 1/1/1 4/4/4 2/2/2
f 5/5/5 4/4/4 1/1/1
f 5/5/5 6/6/6 4/4/4
f 7/7/7 6/6/6 5/5/5
f 8/8/8 9/9/9 10/10/10
f 8/8/8 11/11/11 9/9/9
f 11/11/11 12/12/12 9/9/9
f 11/11/11 13/13/13 12/12/12
f 14/14/14 15/15/15 16/16/16
f 14/14/14 17/17/17 15/15/15
f 13/13/13 18/18/18 12/12/12
f 13/13/13 19/19/19 18/18/18
f 19/19/19 20/20/20 18/18/18
f 19/19/19 21/21/21 20/20/20
f 21/21/21 22/22/22 20/20/20
f 21/21/21 23/23/23 22/22/22
f 23/23/23 24/24/24 22/22/22
f 23/23/23 25/25/25 24/24/24
f 25/25/25 26/26/26 24/24/24
f 25/25/25 27/27/27 26/26/26
f 27/27/27 28/28/28 26/26/26
f 27/27/27 29/29/29 28/28/28
f 29/29/29 30/30/30 28/28/28
f 29/29/29 31/31/31 30/30/30
f 31/31/31 32/32/32 30/30/30
f 31/31/31 33/33/33 32/32/32
f 33/33/33 34/34/34 32/32/32
f 33/33/33 35/35/35 34/34/34
f 35/35/35 36/36/36 34/34/34
f 35/35/35 37/37/37 36/36/36
f 37/37/37 38/38/38 36/36/36
f 37/37/37 39/39/39 38/38/38
f 39/39/39 40/40/40 38/38/38
f 39/39/39 41/41/41 40/40/40
f 41/41/41 42/42/42 40/40/40
f 41/41/41 43/43/43 42/42/42
f 43/43/43 44/44/44 42/42/42
f 43/43/43 45/45/45 44/44/44
f 46/46/46 7/7/7 47/47/47
f 46/46/46 6/6/6 7/7/7
f 17/17/17 48/48/48 15/15/15
f 17/17/17 49/49/49 48/48/48
f 49/49/49 50/50/50 48/48/48
f 49/49/49 51/51/51 50/50/50
f 51/51/51 2/2/2 50/50/50

v 4.324218 6.808001 -1.791148
v 4.324218 6.808000 1.791149
v 4.680500 6.808000 0.000002
v 3.309613 6.808002 -3.309612
v -4.324216 6.807999 1.791153
v -4.324218 6.808001 -1.791147
v -4.680499 6.808000 0.000003
v -3.309612 6.807999 3.309615
v 3.309613 6.807999 3.309613
v 1.791150 6.808002 -4.324216
v 1.791151 6.807999 4.324218
v 0.000000 6.808002 -4.680498
v -3.309613 6.808002 -3.309611
v -1.791148 6.807998 4.324219
v -1.791151 6.808002 -4.324216
v 0.000002 6.807998 4.680501

vt 0.308484 0.518820
vt 0.691516 0.518820
vt 0.500000 0.499772
vt 0.146125 0.573063
vt 0.691516 0.981180
vt 0.308484 0.981180
vt 0.500000 1.000228
vt 0.853875 0.926937
vt 0.853875 0.573063
vt 0.037640 0.654242
vt 0.962360 0.654242
vt -0.000455 0.750000
vt 0.146125 0.926937
vt 0.962360 0.845758
vt 0.037640 0.845758
vt 1.000455 0.750000

vn 0.693340 0.660910 -0.287190
vn 0.693340 0.660910 0.287191
vn 0.881044 0.473034 0.000000
vn 0.530659 0.660910 -0.530659
vn -0.693339 0.660910 0.287191
vn -0.693340 0.660910 -0.287190
vn -0.881044 0.473034 0.000000
vn -0.530659 0.660910 0.530659
vn 0.530659 0.660910 0.530659
vn 0.287190 0.660910 -0.693339
vn 0.287191 0.660910 0.693339
vn 0.000000 0.660910 -0.750465
vn -0.530659 0.660910 -0.530659
vn -0.287190 0.660910 0.693340
vn -0.287191 0.660910 -0.693339
vn 0.000000 0.660910 0.750465

g polygon1
s 1
usemtl mat3
f 52/52/52 53/53/53 54/54/54
f 52/52/52 55/55/55 53/53/53
f 56/56/56 57/57/57 58/58/58
f 56/56/56 59/59/59 57/57/57
f 55/55/55 60/60/60 53/53/53
f 55/55/55 61/61/61 60/60/60
f 61/61/61 62/62/62 60/60/60
f 61/61/61 63/63/63 62/62/62
f 59/59/59 64/64/64 57/57/57
f 59/59/59 65/65/65 64/64/64
f 65/65/65 66/66/66 64/64/64
f 65/65/65 67/67/67 66/66/66
f 63/63/63 67/67/67 62/62/62
f 63/63/63 66/66/66 67/67/67

v 0.000000 6.808000 1.276501
v 0.000000 7.296495 1.179333
v -0.300874 6.808000 1.151875
v 0.300874 7.248803 1.064194
v 0.300874 6.808000 1.151875
v 0.425500 7.133664 0.786223
v 0.425500 6.808000 0.851002
v 0.300874 7.018525 0.508251
v 0.300874 6.808001 0.550128
v 0.000000 6.970832 0.393112
v 0.000000 6.808000 0.425501
v -0.300874 7.018525 0.508251
v -0.300874 6.808000 0.550128
v -0.425500 7.133664 0.786223
v -0.425500 6.808000 0.851001
v -0.300874 7.248803 1.064194
v 0.000000 7.710621 0.902623
v 0.300874 7.622499 0.814499
v 0.425500 7.409748 0.601749
v 0.300874 7.196999 0.388999
v 0.000000 7.108874 0.300875
v -0.300874 7.196999 0.388999
v -0.425500 7.409747 0.601749
v -0.300874 7.622499 0.814499
v 0.000000 7.987332 0.488497
v 0.300874 7.872193 0.440804
v 0.425500 7.594222 0.325665
v 0.300874 7.316251 0.210525
v 0.000000 7.201111 0.162834
v -0.300874 7.316251 0.210525
v -0.425500 7.594221 0.325665
v -0.300874 7.872193 0.440804
v 0.000000 8.084500 0.000002
v 0.300874 7.959874 0.000002
v 0.425500 7.659000 0.000002
v 0.300874 7.358127 0.000002
v 0.000000 7.233500 0.000002
v -0.300874 7.358126 0.000002
v -0.425500 7.659000 0.000002
v -0.300874 7.959874 0.000002
v 0.000000 6.808001 -1.276498
v 0.000000 7.296496 -1.179330
v 0.300874 6.808001 -1.151872
v -0.300874 7.248803 -1.064191
v -0.300874 6.808000 -1.151872
v -0.425500 7.133664 -0.786220
v -0.425500 6.808000 -0.850998
v -0.300874 7.018525 -0.508248
v -0.300874 6.808000 -0.550124
v 0.000000 6.970833 -0.393110
v 0.000000 6.808000 -0.425498
v 0.300874 7.018525 -0.508248
v 0.300874 6.808001 -0.550124
v 0.425500 7.133664 -0.786220
v 0.425500 6.808000 -0.850998
v 0.300874 7.248804 -1.064191
v 0.000000 7.710622 -0.902620
v -0.300874 7.622499 -0.814496
v -0.425500 7.409747 -0.601746
v -0.300874 7.196999 -0.388996
v 0.000000 7.108874 -0.300872
v 0.300874 7.196999 -0.388996
v 0.425500 7.409748 -0.601746
v 0.300874 7.622499 -0.814496
v 0.000000 7.987333 -0.488493
v -0.300874 7.872193 -0.440801
v -0.425500 7.594222 -0.325662
v -0.300874 7.316251 -0.210523
v 0.000000 7.201112 -0.162830
v 0.300874 7.316251 -0.210523
v 0.425500 7.594222 -0.325662
v 0.300874 7.872193 -0.440801

vt 0.500000 0.000000
vt 0.480970 0.382683
vt 0.475592 0.000000
vt 0.458420 0.345322
vt 0.475592 0.000000
vt 0.403980 0.255122
vt 0.416667 0.000000
vt 0.349540 0.164923
vt 0.357741 0.000000
vt 0.326990 0.127561
vt 0.333333 0.000000
vt 0.349540 0.164923
vt 0.357741 0.000000
vt 0.403980 0.255122
vt 0.416667 0.000000
vt 0.458420 0.345322
vt 0.426776 0.707107
vt 0.409518 0.638071
vt 0.367851 0.471405
vt 0.326185 0.304738
vt 0.308926 0.235702
vt 0.326185 0.304738
vt 0.367851 0.471405
vt 0.409518 0.638071
vt 0.345671 0.923879
vt 0.336331 0.833680
vt 0.313780 0.615920
vt 0.291230 0.398159
vt 0.281891 0.307960
vt 0.291230 0.398159
vt 0.313780 0.615920
vt 0.336331 0.833680
vt 0.250000 1.000000
vt 0.250000 0.902369
vt 0.250000 0.666667
vt 0.250000 0.430964
vt 0.250000 0.333333
vt 0.250000 0.430964
vt 0.250000 0.666667
vt 0.250000 0.902369
vt 0.000000 0.000000
vt 0.019030 0.382684
vt 0.024408 0.000000
vt 0.041580 0.345322
vt 0.024408 0.000000
vt 0.096020 0.255123
vt 0.083333 0.000000
vt 0.150460 0.164923
vt 0.142259 0.000000
vt 0.173010 0.127561
vt 0.166666 0.000000
vt 0.150460 0.164923
vt 0.142259 0.000000
vt 0.096020 0.255123
vt 0.083333 0.000000
vt 0.041580 0.345322
vt 0.073224 0.707107
vt 0.090482 0.638071
vt 0.132149 0.471405
vt 0.173816 0.304738
vt 0.191075 0.235702
vt 0.173816 0.304738
vt 0.132149 0.471405
vt 0.090482 0.638071
vt 0.154329 0.923880
vt 0.163669 0.833680
vt 0.186219 0.615920
vt 0.208770 0.398159
vt 0.218110 0.307960
vt 0.208770 0.398159
vt 0.186219 0.615920
vt 0.163669 0.833680

vn 0.000000 0.195090 0.980785
vn 0.000000 0.382683 0.923880
vn -0.702239 0.138892 0.698261
vn 0.709113 0.269828 0.651423
vn 0.702239 0.138892 0.698261
vn 1.000000 0.000000 0.000000
vn 1.000000 0.000000 0.000000
vn 0.709113 -0.269828 -0.651422
vn 0.702240 -0.138893 -0.698260
vn 0.000000 -0.382684 -0.923879
vn 0.000000 -0.195090 -0.980785
vn -0.709113 -0.269828 -0.651423
vn -0.702240 -0.138893 -0.698261
vn -1.000000 0.000000 0.000000
vn -1.000000 0.000000 0.000000
vn -0.709113 0.269828 0.651423
vn 0.000000 0.707107 0.707107
vn 0.709112 0.498578 0.498578
vn 1.000000 0.000000 0.000000
vn 0.709113 -0.498577 -0.498578
vn 0.000000 -0.707107 -0.707107
vn -0.709113 -0.498577 -0.498578
vn -1.000000 0.000000 0.000000
vn -0.709113 0.498578 0.498577
vn 0.000000 0.923880 0.382683
vn 0.709113 0.651423 0.269828
vn 1.000000 0.000000 0.000000
vn 0.709113 -0.651422 -0.269829
vn 0.000000 -0.923879 -0.382685
vn -0.709113 -0.651423 -0.269829
vn -1.000000 0.000000 0.000000
vn -0.709113 0.651423 0.269828
vn 0.000000 1.000000 0.000000
vn 0.709113 0.705095 0.000000
vn 1.000000 0.000000 0.000000
vn 0.709113 -0.705095 0.000000
vn 0.000000 -1.000000 0.000000
vn -0.709113 -0.705095 -0.000001
vn -1.000000 0.000000 0.000000
vn -0.709113 0.705095 0.000000
vn 0.000000 0.195091 -0.980785
vn 0.000000 0.382683 -0.923880
vn 0.702240 0.138893 -0.698261
vn -0.709113 0.269828 -0.651423
vn -0.702240 0.138893 -0.698261
vn -1.000000 0.000000 0.000000
vn -1.000000 0.000000 0.000000
vn -0.709113 -0.269828 0.651423
vn -0.702239 -0.138891 0.698261
vn 0.000000 -0.382683 0.923880
vn 0.000000 -0.195088 0.980786
vn 0.709113 -0.269828 0.651423
vn 0.702240 -0.138891 0.698261
vn 1.000000 0.000000 0.000000
vn 1.000000 0.000000 0.000000
vn 0.709113 0.269828 -0.651423
vn 0.000000 0.707107 -0.707107
vn -0.709113 0.498577 -0.498577
vn -1.000000 0.000000 0.000000
vn -0.709113 -0.498578 0.498577
vn 0.000000 -0.707107 0.707106
vn 0.709113 -0.498578 0.498577
vn 1.000000 0.000000 0.000000
vn 0.709113 0.498577 -0.498577
vn 0.000000 0.923880 -0.382683
vn -0.709113 0.651422 -0.269828
vn -1.000000 0.000000 0.000000
vn -0.709113 -0.651423 0.269828
vn 0.000000 -0.923879 0.382684
vn 0.709113 -0.651423 0.269829
vn 1.000000 0.000000 0.000000
vn 0.709113 0.651423 -0.269828

g polygon2
s 1
usemtl mat1
f 68/68/68 69/69/69 70/70/70
f 68/68/68 71/71/71 69/69/69
f 72/72/72 71/71/71 68/68/68
f 72/72/72 73/73/73 71/71/71
f 74/74/74 73/73/73 72/72/72
f 74/74/74 75/75/75 73/73/73
f 76/76/76 75/75/75 74/74/74
f 76/76/76 77/77/77 75/75/75
f 78/78/78 77/77/77 76/76/76
f 78/78/78 79/79/79 77/77/77
f 80/80/80 79/79/79 78/78/78
f 80/80/80 81/81/81 79/79/79
f 82/82/82 81/81/81 80/80/80
f 82/82/82 83/83/83 81/81/81
f 70/70/70 83/83/83 82/82/82
f 70/70/70 69/69/69 83/83/83
f 69/69/69 84/84/84 83/83/83
f 69/69/69 85/85/85 84/84/84
f 71/71/71 85/85/85 69/69/69
f 71/71/71 86/86/86 85/85/85
f 73/73/73 86/86/86 71/71/71
f 73/73/73 87/87/87 86/86/86
f 75/75/75 87/87/87 73/73/73
f 75/75/75 88/88/88 87/87/87
f 77/77/77 88/88/88 75/75/75
f 77/77/77 89/89/89 88/88/88
f 79/79/79 89/89/89 77/77/77
f 79/79/79 90/90/90 89/89/89
f 81/81/81 90/90/90 79/79/79
f 81/81/81 91/91/91 90/90/90
f 83/83/83 91/91/91 81/81/81
f 83/83/83 84/84/84 91/91/91
f 84/84/84 92/92/92 91/91/91
f 84/84/84 93/93/93 92/92/92
f 85/85/85 93/93/93 84/84/84
f 85/85/85 94/94/94 93/93/93
f 86/86/86 94/94/94 85/85/85
f 86/86/86 95/95/95 94/94/94
f 87/87/87 95/95/95 86/86/86
f 87/87/87 96/96/96 95/95/95
f 88/88/88 96/96/96 87/87/87
f 88/88/88 97/97/97 96/96/96
f 89/89/89 97/97/97 88/88/88
f 89/89/89 98/98/98 97/97/97
f 90/90/90 98/98/98 89/89/89
f 90/90/90 99/99/99 98/98/98
f 91/91/91 99/99/99 90/90/90
f 91/91/91 92/92/92 99/99/99
f 92/92/92 100/100/100 99/99/99
f 92/92/92 101/101/101 100/100/100
f 93/93/93 101/101/101 92/92/92
f 93/93/93 102/102/102 101/101/101
f 94/94/94 102/102/102 93/93/93
f 94/94/94 103/103/103 102/102/102
f 95/95/95 103/103/103 94/94/94
f 95/95/95 104/104/104 103/103/103
f 96/96/96 104/104/104 95/95/95
f 96/96/96 105/105/105 104/104/104
f 97/97/97 105/105/105 96/96/96
f 97/97/97 106/106/106 105/105/105
f 98/98/98 106/106/106 97/97/97
f 98/98/98 107/107/107 106/106/106
f 99/99/99 107/107/107 98/98/98
f 99/99/99 100/100/100 107/107/107
f 108/108/108 109/109/109 110/110/110
f 108/108/108 111/111/111 109/109/109
f 112/112/112 111/111/111 108/108/108
f 112/112/112 113/113/113 111/111/111
f 114/114/114 113/113/113 112/112/112
f 114/114/114 115/115/115 113/113/113
f 116/116/116 115/115/115 114/114/114
f 116/116/116 117/117/117 115/115/115
f 118/118/118 117/117/117 116/116/116
f 118/118/118 119/119/119 117/117/117
f 120/120/120 119/119/119 118/118/118
f 120/120/120 121/121/121 119/119/119
f 122/122/122 121/121/121 120/120/120
f 122/122/122 123/123/123 121/121/121
f 110/110/110 123/123/123 122/122/122
f 110/110/110 109/109/109 123/123/123
f 109/109/109 124/124/124 123/123/123
f 109/109/109 125/125/125 124/124/124
f 111/111/111 125/125/125 109/109/109
f 111/111/111 126/126/126 125/125/125
f 113/113/113 126/126/126 111/111/111
f 113/113/113 127/127/127 126/126/126
f 115/115/115 127/127/127 113/113/113
f 115/115/115 128/128/128 127/127/127
f 117/117/117 128/128/128 115/115/115
f 117/117/117 129/129/129 128/128/128
f 119/119/119 129/129/129 117/117/117
f 119/119/119 130/130/130 129/129/129
f 121/121/121 130/130/130 119/119/119
f 121/121/121 131/131/131 130/130/130
f 123/123/123 131/131/131 121/121/121
f 123/123/123 124/124/124 131/131/131
f 124/124/124 132/132/132 131/131/131
f 124/124/124 133/133/133 132/132/132
f 125/125/125 133/133/133 124/124/124
f 125/125/125 134/134/134 133/133/133
f 126/126/126 134/134/134 125/125/125
f 126/126/126 135/135/135 134/134/134
f 127/127/127 135/135/135 126/126/126
f 127/127/127 136/136/136 135/135/135
f 128/128/128 136/136/136 127/127/127
f 128/128/128 137/137/137 136/136/136
f 129/129/129 137/137/137 128/128/128
f 129/129/129 138/138/138 137/137/137
f 130/130/130 138/138/138 129/129/129
f 130/130/130 139/139/139 138/138/138
f 131/131/131 139/139/139 130/130/130
f 131/131/131 132/132/132 139/139/139
f 101/101/101 139/139/139 100/100/100
f 101/101/101 138/138/138 139/139/139
f 102/102/102 138/138/138 101/101/101
f 102/102/102 137/137/137 138/138/138
f 103/103/103 137/137/137 102/102/102
f 103/103/103 136/136/136 137/137/137
f 104/104/104 136/136/136 103/103/103
f 104/104/104 135/135/135 136/136/136
f 105/105/105 135/135/135 104/104/104
f 105/105/105 134/134/134 135/135/135
f 106/106/106 134/134/134 105/105/105
f 106/106/106 133/133/133 134/134/134
f 107/107/107 133/133/133 106/106/106
f 107/107/107 132/132/132 133/133/133
f 100/100/100 132/132/132 107/107/107
f 100/100/100 139/139/139 132/132/132

