mtllib WpnKirbyWarpStar.mtl

v 3.676732 -2.049414 21.512295
v -2.848860 -2.049414 -22.686707
v -21.685564 -2.049414 2.675591
v 22.513437 -2.049414 -3.850001

vt 1.000000 0.000000
vt 0.000000 1.000000
vt 0.000000 0.000000
vt 1.000000 1.000000

vn 0.000000 1.000000 0.000000
vn 0.000000 1.000000 0.000000
vn 0.000000 1.000000 0.000000
vn 0.000000 1.000000 0.000000

g polygon0
s 1
usemtl mat1
f 1/1/1 2/2/2 3/3/3
f 1/1/1 4/4/4 2/2/2

v 0.000000 -0.235505 2.864025
v 0.509402 -0.977211 7.430374
v 2.567393 -0.936005 3.533712
v -0.509402 -0.977211 7.430374
v -2.567393 -0.936005 3.533712
v -0.783204 -1.777783 8.863775
v -3.274266 -1.777783 4.506640
v -0.783204 -2.502916 8.863775
v -3.274266 -2.502916 4.506639
v -0.509400 -3.303489 7.430374
v -2.567393 -3.344696 3.533712
v 0.000002 -4.045196 2.864025
v -2.723849 -4.045197 0.885033
v 0.000000 -4.280658 0.000000
v -1.683431 -4.045196 -2.317044
v 1.683432 -4.045196 -2.317044
v 0.000002 -3.344696 -4.367908
v 3.955351 -3.303489 -6.310716
v 4.576371 -2.502916 -7.631299
v 5.203101 -2.502916 -7.696733
v 5.203100 -1.777783 -7.696734
v 5.712183 -2.502916 -7.326862
v 5.712182 -1.777783 -7.326865
v 5.843619 -1.777783 -6.710587
v 4.779577 -0.977211 -5.711881
v 4.154127 -0.936005 -1.349759
v 1.683431 -0.235505 -2.317044
v 2.723850 -0.235503 0.885033
v 0.000000 -0.000042 0.000000
v -2.723849 -0.235505 0.885033
v -6.909292 -0.977211 2.780581
v -8.187927 -1.777783 3.483928
v -8.187929 -2.502916 3.483927
v -6.909292 -3.303489 2.780581
v -7.224122 -3.303489 1.811643
v -4.154127 -3.344696 -1.349759
v -5.297874 -2.502916 -1.721383
v -5.843620 -2.502916 -6.710587
v -5.843622 -1.777783 -6.710587
v -5.712185 -1.777783 -7.326862
v -4.779581 -0.977211 -5.711880
v -5.203103 -1.777783 -7.696733
v -3.955350 -0.977211 -6.310716
v -4.576371 -1.777783 -7.631299
v 0.000000 -0.936005 -4.367908
v 0.000000 -1.777783 -5.570514
v 3.955350 -0.977211 -6.310719
v 4.576370 -1.777783 -7.631299
v 6.909292 -0.977211 2.780580
v 8.187929 -1.777783 3.483927
v 8.733424 -1.777783 3.168481
v 8.733424 -2.502916 3.168483
v 8.927877 -1.777783 2.570019
v 8.927876 -2.502916 2.570020
v 8.671972 -2.502916 1.994186
v 7.224122 -3.303489 1.811643
v 4.154129 -3.344696 -1.349757
v 2.723850 -4.045196 0.885033
v -1.683432 -0.235505 -2.317044
v -4.154127 -0.936005 -1.349757
v -7.224120 -0.977211 1.811643
v -8.671972 -1.777783 1.994186
v -8.927876 -1.777783 2.570022
v -8.927877 -2.502918 2.570020
v -8.733424 -1.777783 3.168485
v -8.733424 -2.502918 3.168483
v 3.274268 -1.777783 4.506639
v 0.783204 -1.777783 8.863775
v 0.314631 -1.777783 9.285095
v 0.783206 -2.502916 8.863775
v 0.314631 -2.502916 9.285095
v 0.509402 -3.303489 7.430374
v -0.314629 -2.502916 9.285095
v 7.224122 -0.977211 1.811642
v 5.297874 -1.777783 -1.721383
v 5.843620 -2.502916 -6.710587
v 4.779579 -3.303489 -5.711880
v 5.297874 -2.502916 -1.721383
v 8.671974 -1.777783 1.994184
v 2.567393 -3.344696 3.533712
v 6.909292 -3.303489 2.780581
v 3.274268 -2.502916 4.506640
v 8.187927 -2.502916 3.483928
v -4.779577 -3.303489 -5.711880
v -5.712183 -2.502916 -7.326865
v -5.203101 -2.502916 -7.696734
v -0.314629 -1.777783 9.285095
v -3.955350 -3.303489 -6.310719
v 0.000000 -2.502916 -5.570514
v -5.297874 -1.777783 -1.721382
v -8.671974 -2.502918 1.994184
v -4.576370 -2.502916 -7.631299

vt 0.250000 0.648266
vt 0.264264 0.898402
vt 0.321892 0.684950
vt 0.235736 0.898402
vt 0.178108 0.684950
vt 0.228069 0.976921
vt 0.158313 0.738245
vt 0.228069 0.976921
vt 0.158313 0.738245
vt 0.235736 0.898402
vt 0.178108 0.684950
vt 0.250000 0.648266
vt 0.173726 0.539860
vt 0.250000 0.491380
vt 0.202861 0.364457
vt 0.297139 0.364457
vt 0.250000 0.252114
vt 0.360759 0.145691
vt 0.378148 0.073352
vt 0.395698 0.069768
vt 0.395698 0.069768
vt 0.409954 0.090028
vt 0.409954 0.090028
vt 0.413634 0.123787
vt 0.383839 0.178494
vt 0.366325 0.417443
vt 0.297139 0.364457
vt 0.326274 0.539860
vt 0.250000 0.491380
vt 0.173726 0.539860
vt 0.056525 0.643695
vt 0.020720 0.682223
vt 0.020720 0.682223
vt 0.056525 0.643695
vt 0.047709 0.590618
vt 0.133676 0.417443
vt 0.101648 0.397086
vt 0.086366 0.123787
vt 0.086366 0.123787
vt 0.090047 0.090028
vt 0.116162 0.178494
vt 0.104302 0.069767
vt 0.139242 0.145691
vt 0.121851 0.073352
vt 0.250000 0.252114
vt 0.250000 0.186238
vt 0.360759 0.145691
vt 0.378148 0.073352
vt 0.443475 0.643695
vt 0.479280 0.682223
vt 0.494555 0.664944
vt 0.494555 0.664944
vt 0.500000 0.632161
vt 0.500000 0.632161
vt 0.492834 0.600618
vt 0.452291 0.590618
vt 0.366325 0.417443
vt 0.326274 0.539860
vt 0.202861 0.364457
vt 0.133676 0.417443
vt 0.047709 0.590618
vt 0.007166 0.600618
vt 0.000000 0.632161
vt 0.000000 0.632161
vt 0.005445 0.664944
vt 0.005445 0.664944
vt 0.341686 0.738245
vt 0.271931 0.976921
vt 0.258810 1.000000
vt 0.271931 0.976921
vt 0.258810 1.000000
vt 0.264264 0.898402
vt 0.241189 1.000000
vt 0.452291 0.590618
vt 0.398352 0.397086
vt 0.413634 0.123787
vt 0.383839 0.178494
vt 0.398352 0.397086
vt 0.492834 0.600618
vt 0.321892 0.684950
vt 0.443475 0.643695
vt 0.341686 0.738245
vt 0.479280 0.682223
vt 0.116162 0.178494
vt 0.090047 0.090028
vt 0.104302 0.069767
vt 0.241189 1.000000
vt 0.139242 0.145691
vt 0.250000 0.186238
vt 0.101648 0.397086
vt 0.007166 0.600618
vt 0.121851 0.073352

vn 0.000000 0.986951 0.161018
vn 0.235504 0.928051 0.288546
vn 0.236448 0.915521 0.325443
vn -0.235504 0.928051 0.288546
vn -0.236448 0.915521 0.325443
vn -0.694781 0.459759 0.553083
vn -0.520591 0.464290 0.716533
vn -0.694781 -0.459760 0.553083
vn -0.520591 -0.464291 0.716532
vn -0.235504 -0.928051 0.288546
vn -0.236448 -0.915521 0.325443
vn 0.000000 -0.986951 0.161018
vn -0.153137 -0.986952 0.049757
vn 0.000000 -1.000000 0.000000
vn -0.094644 -0.986952 -0.130266
vn 0.094644 -0.986952 -0.130266
vn 0.000000 -0.915521 -0.402270
vn -0.020923 -0.928051 -0.371864
vn -0.236995 -0.459760 -0.855835
vn 0.202833 -0.540202 -0.816726
vn 0.202833 0.540200 -0.816727
vn 0.714075 -0.540201 -0.445287
vn 0.714075 0.540201 -0.445287
vn 0.887184 0.459759 -0.039071
vn 0.360130 0.928051 -0.095013
vn 0.382581 0.915521 -0.124309
vn 0.094644 0.986952 -0.130266
vn 0.153137 0.986952 0.049757
vn 0.000000 1.000000 0.000000
vn -0.153137 0.986952 0.049757
vn -0.201649 0.928051 0.313144
vn -0.311314 0.459758 0.831689
vn -0.311313 -0.459759 0.831688
vn -0.201649 -0.928051 0.313144
vn -0.347198 -0.928051 -0.134812
vn -0.382581 -0.915521 -0.124308
vn -0.842334 -0.464291 -0.273691
vn -0.887183 -0.459760 -0.039071
vn -0.887184 0.459758 -0.039071
vn -0.714075 0.540200 -0.445287
vn -0.360130 0.928051 -0.095013
vn -0.202834 0.540201 -0.816726
vn 0.020923 0.928051 -0.371865
vn 0.236995 0.459760 -0.855835
vn 0.000000 0.915521 -0.402270
vn 0.000000 0.464291 -0.885683
vn -0.020924 0.928051 -0.371865
vn -0.236996 0.459759 -0.855836
vn 0.201649 0.928051 0.313143
vn 0.311314 0.459760 0.831687
vn 0.644155 0.540201 0.541523
vn 0.644155 -0.540200 0.541523
vn 0.839432 0.540200 -0.059478
vn 0.839431 -0.540201 -0.059478
vn 0.740712 -0.459760 -0.489864
vn 0.347199 -0.928051 -0.134812
vn 0.382581 -0.915521 -0.124308
vn 0.153137 -0.986952 0.049757
vn -0.094644 0.986952 -0.130266
vn -0.382581 0.915521 -0.124308
vn -0.347199 0.928051 -0.134812
vn -0.740712 0.459760 -0.489864
vn -0.839431 0.540202 -0.059477
vn -0.839432 -0.540200 -0.059477
vn -0.644154 0.540201 0.541524
vn -0.644154 -0.540201 0.541524
vn 0.520591 0.464292 0.716532
vn 0.694781 0.459760 0.553083
vn 0.315964 0.540201 0.779968
vn 0.694781 -0.459759 0.553083
vn 0.315964 -0.540201 0.779968
vn 0.235504 -0.928051 0.288546
vn -0.315964 -0.540201 0.779968
vn 0.347199 0.928051 -0.134812
vn 0.842334 0.464291 -0.273691
vn 0.887184 -0.459758 -0.039071
vn 0.360130 -0.928051 -0.095013
vn 0.842334 -0.464291 -0.273691
vn 0.740712 0.459758 -0.489865
vn 0.236448 -0.915521 0.325443
vn 0.201649 -0.928051 0.313143
vn 0.520591 -0.464290 0.716533
vn 0.311314 -0.459759 0.831688
vn -0.360130 -0.928051 -0.095013
vn -0.714075 -0.540201 -0.445287
vn -0.202834 -0.540200 -0.816727
vn -0.315964 0.540201 0.779968
vn 0.020924 -0.928051 -0.371865
vn 0.000000 -0.464291 -0.885683
vn -0.842334 0.464291 -0.273691
vn -0.740713 -0.459758 -0.489865
vn 0.236995 -0.459759 -0.855836

g polygon1
s 1
usemtl mat2
f 5/5/5 6/6/6 7/7/7
f 5/5/5 8/8/8 6/6/6
f 9/9/9 8/8/8 5/5/5
f 9/9/9 10/10/10 8/8/8
f 11/11/11 10/10/10 9/9/9
f 11/11/11 12/12/12 10/10/10
f 13/13/13 12/12/12 11/11/11
f 13/13/13 14/14/14 12/12/12
f 15/15/15 14/14/14 13/13/13
f 15/15/15 16/16/16 14/14/14
f 17/17/17 16/16/16 15/15/15
f 17/17/17 18/18/18 16/16/16
f 19/19/19 18/18/18 17/17/17
f 19/19/19 20/20/20 18/18/18
f 21/21/21 20/20/20 19/19/19
f 21/21/21 22/22/22 20/20/20
f 23/23/23 22/22/22 21/21/21
f 23/23/23 24/24/24 22/22/22
f 25/25/25 24/24/24 23/23/23
f 25/25/25 26/26/26 24/24/24
f 27/27/27 26/26/26 25/25/25
f 27/27/27 28/28/28 26/26/26
f 29/29/29 28/28/28 27/27/27
f 29/29/29 30/30/30 28/28/28
f 31/31/31 30/30/30 29/29/29
f 31/31/31 32/32/32 30/30/30
f 33/33/33 32/32/32 31/31/31
f 33/33/33 5/5/5 32/32/32
f 34/34/34 5/5/5 33/33/33
f 34/34/34 9/9/9 5/5/5
f 35/35/35 9/9/9 34/34/34
f 35/35/35 11/11/11 9/9/9
f 36/36/36 11/11/11 35/35/35
f 36/36/36 13/13/13 11/11/11
f 37/37/37 13/13/13 36/36/36
f 37/37/37 15/15/15 13/13/13
f 38/38/38 15/15/15 37/37/37
f 38/38/38 17/17/17 15/15/15
f 39/39/39 17/17/17 38/38/38
f 39/39/39 40/40/40 17/17/17
f 41/41/41 40/40/40 39/39/39
f 41/41/41 42/42/42 40/40/40
f 43/43/43 42/42/42 41/41/41
f 43/43/43 44/44/44 42/42/42
f 45/45/45 44/44/44 43/43/43
f 45/45/45 46/46/46 44/44/44
f 47/47/47 46/46/46 45/45/45
f 47/47/47 48/48/48 46/46/46
f 49/49/49 48/48/48 47/47/47
f 49/49/49 50/50/50 48/48/48
f 51/51/51 50/50/50 49/49/49
f 51/51/51 52/52/52 50/50/50
f 25/25/25 52/52/52 51/51/51
f 25/25/25 23/23/23 52/52/52
f 7/7/7 32/32/32 5/5/5
f 7/7/7 53/53/53 32/32/32
f 54/54/54 53/53/53 7/7/7
f 54/54/54 55/55/55 53/53/53
f 56/56/56 55/55/55 54/54/54
f 56/56/56 57/57/57 55/55/55
f 58/58/58 57/57/57 56/56/56
f 58/58/58 59/59/59 57/57/57
f 60/60/60 59/59/59 58/58/58
f 60/60/60 61/61/61 59/59/59
f 62/62/62 61/61/61 60/60/60
f 62/62/62 20/20/20 61/61/61
f 18/18/18 20/20/20 62/62/62
f 63/63/63 33/33/33 31/31/31
f 63/63/63 34/34/34 33/33/33
f 64/64/64 34/34/34 63/63/63
f 64/64/64 65/65/65 34/34/34
f 66/66/66 65/65/65 64/64/64
f 66/66/66 67/67/67 65/65/65
f 68/68/68 67/67/67 66/66/66
f 68/68/68 69/69/69 67/67/67
f 70/70/70 69/69/69 68/68/68
f 70/70/70 37/37/37 69/69/69
f 38/38/38 37/37/37 70/70/70
f 6/6/6 71/71/71 7/7/7
f 6/6/6 72/72/72 71/71/71
f 73/73/73 72/72/72 6/6/6
f 73/73/73 74/74/74 72/72/72
f 75/75/75 74/74/74 73/73/73
f 75/75/75 76/76/76 74/74/74
f 77/77/77 76/76/76 75/75/75
f 77/77/77 14/14/14 76/76/76
f 12/12/12 14/14/14 77/77/77
f 78/78/78 32/32/32 53/53/53
f 78/78/78 30/30/30 32/32/32
f 79/79/79 30/30/30 78/78/78
f 79/79/79 28/28/28 30/30/30
f 80/80/80 28/28/28 79/79/79
f 80/80/80 26/26/26 28/28/28
f 81/81/81 26/26/26 80/80/80
f 81/81/81 24/24/24 26/26/26
f 22/22/22 24/24/24 81/81/81
f 81/81/81 20/20/20 22/22/22
f 81/81/81 61/61/61 20/20/20
f 82/82/82 61/61/61 81/81/81
f 82/82/82 59/59/59 61/61/61
f 83/83/83 59/59/59 82/82/82
f 83/83/83 57/57/57 59/59/59
f 78/78/78 57/57/57 83/83/83
f 78/78/78 55/55/55 57/57/57
f 53/53/53 55/55/55 78/78/78
f 62/62/62 16/16/16 18/18/18
f 62/62/62 84/84/84 16/16/16
f 85/85/85 84/84/84 62/62/62
f 85/85/85 86/86/86 84/84/84
f 87/87/87 86/86/86 85/85/85
f 87/87/87 71/71/71 86/86/86
f 54/54/54 71/71/71 87/87/87
f 54/54/54 7/7/7 71/71/71
f 40/40/40 19/19/19 17/17/17
f 40/40/40 88/88/88 19/19/19
f 42/42/42 88/88/88 40/40/40
f 42/42/42 89/89/89 88/88/88
f 44/44/44 89/89/89 42/42/42
f 44/44/44 90/90/90 89/89/89
f 46/46/46 90/90/90 44/44/44
f 46/46/46 48/48/48 90/90/90
f 8/8/8 73/73/73 6/6/6
f 8/8/8 91/91/91 73/73/73
f 10/10/10 91/91/91 8/8/8
f 10/10/10 77/77/77 91/91/91
f 12/12/12 77/77/77 10/10/10
f 92/92/92 19/19/19 88/88/88
f 92/92/92 21/21/21 19/19/19
f 93/93/93 21/21/21 92/92/92
f 93/93/93 23/23/23 21/21/21
f 52/52/52 23/23/23 93/93/93
f 49/49/49 31/31/31 51/51/51
f 49/49/49 63/63/63 31/31/31
f 47/47/47 63/63/63 49/49/49
f 47/47/47 45/45/45 63/63/63
f 45/45/45 64/64/64 63/63/63
f 45/45/45 94/94/94 64/64/64
f 43/43/43 94/94/94 45/45/45
f 43/43/43 41/41/41 94/94/94
f 94/94/94 66/66/66 64/64/64
f 94/94/94 95/95/95 66/66/66
f 41/41/41 95/95/95 94/94/94
f 41/41/41 39/39/39 95/95/95
f 93/93/93 50/50/50 52/52/52
f 93/93/93 96/96/96 50/50/50
f 92/92/92 96/96/96 93/93/93
f 92/92/92 90/90/90 96/96/96
f 56/56/56 85/85/85 58/58/58
f 56/56/56 87/87/87 85/85/85
f 54/54/54 87/87/87 56/56/56
f 51/51/51 27/27/27 25/25/25
f 51/51/51 29/29/29 27/27/27
f 31/31/31 29/29/29 51/51/51
f 69/69/69 35/35/35 67/67/67
f 69/69/69 36/36/36 35/35/35
f 37/37/37 36/36/36 69/69/69
f 60/60/60 85/85/85 62/62/62
f 60/60/60 58/58/58 85/85/85
f 16/16/16 76/76/76 14/14/14
f 16/16/16 84/84/84 76/76/76
f 84/84/84 74/74/74 76/76/76
f 84/84/84 86/86/86 74/74/74
f 65/65/65 35/35/35 34/34/34
f 65/65/65 67/67/67 35/35/35
f 70/70/70 39/39/39 38/38/38
f 70/70/70 68/68/68 39/39/39
f 68/68/68 95/95/95 39/39/39
f 68/68/68 66/66/66 95/95/95
f 73/73/73 77/77/77 75/75/75
f 73/73/73 91/91/91 77/77/77
f 72/72/72 86/86/86 71/71/71
f 72/72/72 74/74/74 86/86/86
f 83/83/83 79/79/79 78/78/78
f 83/83/83 82/82/82 79/79/79
f 82/82/82 80/80/80 79/79/79
f 82/82/82 81/81/81 80/80/80
f 89/89/89 92/92/92 88/88/88
f 89/89/89 90/90/90 92/92/92
f 96/96/96 48/48/48 50/50/50
f 96/96/96 90/90/90 48/48/48

