# File produced by Open Asset Import Library (http://www.assimp.sf.net)
# (assimp v3.1.187496374)

mtllib Letter_F.obj.mtl

# 20 vertex positions
v  32.8549 -7.80031 9
v  32.8549 -7.80031 0
v  32.8549 0 9
v  32.8549 0 0
v  15.351 -7.80031 9
v  15.351 -7.80031 0
v  15.351 -15.2574 9
v  15.351 -15.2574 0
v  31.7941 -15.2574 9
v  31.7941 -15.2574 0
v  31.7941 -23.0577 9
v  31.7941 -23.0577 0
v  15.351 -23.0577 9
v  15.351 -23.0577 0
v  15.351 -40 9
v  15.351 -40 0
v  5.0234 -40 9
v  5.0234 -40 0
v  5.0234 0 9
v  5.0234 0 0

# 0 UV coordinates

# 6 vertex normals
vn 1 0 0
vn 0 -1 0
vn 0 1 0
vn -1 2.22045e-17 0
vn 0 0 1
vn 0 0 -1

# Mesh 'ascii' with 36 faces
g ascii
usemtl DefaultMaterial
f  1//1 2//1 3//1
f  3//1 2//1 4//1
f  5//2 6//2 1//2
f  1//2 6//2 2//2
f  7//1 8//1 5//1
f  5//1 8//1 6//1
f  9//3 10//3 7//3
f  7//3 10//3 8//3
f  11//1 12//1 9//1
f  9//1 12//1 10//1
f  13//2 14//2 11//2
f  11//2 14//2 12//2
f  15//1 16//1 13//1
f  13//1 16//1 14//1
f  17//2 18//2 15//2
f  15//2 18//2 16//2
f  19//4 20//4 17//4
f  17//4 20//4 18//4
f  3//3 4//3 19//3
f  19//3 4//3 20//3
f  1//5 3//5 5//5
f  5//5 3//5 19//5
f  7//5 5//5 19//5
f  7//5 19//5 13//5
f  19//5 17//5 13//5
f  11//5 7//5 13//5
f  11//5 9//5 7//5
f  13//5 17//5 15//5
f  4//6 6//6 20//6
f  4//6 2//6 6//6
f  6//6 8//6 20//6
f  20//6 8//6 14//6
f  18//6 20//6 14//6
f  8//6 10//6 14//6
f  18//6 14//6 16//6
f  14//6 10//6 12//6

