# File produced by Open Asset Import Library (http://www.assimp.sf.net)
# (assimp v3.1.187496374)

mtllib Letter_T.obj.mtl

# 16 vertex positions
v  37.1607 -7.80031 10
v  37.1607 -7.80031 0
v  37.1607 0 10
v  37.1607 0 0
v  23.9002 -7.80031 10
v  23.9002 -7.80031 0
v  23.9002 -40 10
v  23.9002 -40 0
v  13.5725 -40 10
v  13.5725 -40 0
v  13.5725 -7.80031 10
v  13.5725 -7.80031 0
v  0.280811 -7.80031 10
v  0.280811 -7.80031 0
v  0.280811 0 10
v  0.280811 0 0

# 0 UV coordinates

# 7 vertex normals
vn 1 0 0
vn 0 -1 0
vn -1 -0 -0
vn -1 -5.69322e-17 -0
vn 0 1 0
vn 0 0 1
vn 0 0 -1

# Mesh 'ascii' with 28 faces
g ascii
usemtl DefaultMaterial
f  1//1 2//1 3//1
f  3//1 2//1 4//1
f  5//2 6//2 1//2
f  1//2 6//2 2//2
f  7//1 8//1 5//1
f  5//1 8//1 6//1
f  9//2 10//2 7//2
f  7//2 10//2 8//2
f  11//3 12//3 9//3
f  9//3 12//3 10//3
f  13//2 14//2 11//2
f  11//2 14//2 12//2
f  15//4 16//4 13//4
f  13//4 16//4 14//4
f  3//5 4//5 15//5
f  15//5 4//5 16//5
f  1//6 3//6 5//6
f  5//6 3//6 11//6
f  3//6 15//6 11//6
f  7//6 5//6 11//6
f  7//6 11//6 9//6
f  11//6 15//6 13//6
f  14//7 16//7 12//7
f  12//7 16//7 4//7
f  6//7 12//7 4//7
f  6//7 10//7 12//7
f  6//7 4//7 2//7
f  6//7 8//7 10//7

