# File produced by Open Asset Import Library (http://www.assimp.sf.net)
# (assimp v3.1.187496374)

mtllib Letter_E.obj.mtl

# 24 vertex positions
v  32.8549 -7.80031 10
v  32.8549 -7.80031 0
v  32.8549 0 10
v  32.8549 0 0
v  15.351 -7.80031 10
v  15.351 -7.80031 0
v  15.351 -15.2574 10
v  15.351 -15.2574 0
v  31.8253 -15.2574 10
v  31.8253 -15.2574 0
v  31.8253 -23.0577 10
v  31.8253 -23.0577 0
v  15.351 -23.0577 10
v  15.351 -23.0577 0
v  15.351 -32.1997 10
v  15.351 -32.1997 0
v  33.4477 -32.1997 10
v  33.4477 -32.1997 0
v  33.4477 -40 10
v  33.4477 -40 0
v  5.0234 -40 10
v  5.0234 -40 0
v  5.0234 0 10
v  5.0234 0 0

# 0 UV coordinates

# 6 vertex normals
vn 1 0 0
vn 0 -1 0
vn 0 1 0
vn -1 2.22045e-17 0
vn 0 0 1
vn 0 0 -1

# Mesh 'ascii' with 44 faces
g ascii
usemtl DefaultMaterial
f  1//1 2//1 3//1
f  3//1 2//1 4//1
f  5//2 6//2 1//2
f  1//2 6//2 2//2
f  7//1 8//1 5//1
f  5//1 8//1 6//1
f  9//3 10//3 7//3
f  7//3 10//3 8//3
f  11//1 12//1 9//1
f  9//1 12//1 10//1
f  13//2 14//2 11//2
f  11//2 14//2 12//2
f  15//1 16//1 13//1
f  13//1 16//1 14//1
f  17//3 18//3 15//3
f  15//3 18//3 16//3
f  19//1 20//1 17//1
f  17//1 20//1 18//1
f  21//2 22//2 19//2
f  19//2 22//2 20//2
f  23//4 24//4 21//4
f  21//4 24//4 22//4
f  3//3 4//3 23//3
f  23//3 4//3 24//3
f  1//5 3//5 5//5
f  5//5 3//5 23//5
f  7//5 5//5 23//5
f  7//5 23//5 13//5
f  23//5 21//5 13//5
f  11//5 7//5 13//5
f  11//5 9//5 7//5
f  13//5 21//5 15//5
f  15//5 21//5 19//5
f  17//5 15//5 19//5
f  4//6 6//6 24//6
f  4//6 2//6 6//6
f  6//6 8//6 24//6
f  24//6 8//6 14//6
f  24//6 14//6 22//6
f  8//6 10//6 14//6
f  22//6 14//6 16//6
f  14//6 10//6 12//6
f  20//6 22//6 16//6
f  20//6 16//6 18//6

