# File produced by Open Asset Import Library (http://www.assimp.sf.net)
# (assimp v3.1.187496374)

mtllib seven.obj.mtl

# 14 vertex positions
v  33.8222 -5.80343 10
v  33.8222 -5.80343 0
v  33.8222 0 10
v  33.8222 0 0
v  18.2215 -40 10
v  18.2215 -40 0
v  8.17473 -40 10
v  8.17473 -40 0
v  22.9329 -7.5819 10
v  22.9329 -7.5819 0
v  3.68175 -7.5819 10
v  3.68175 -7.5819 0
v  3.68175 0 10
v  3.68175 0 0

# 0 UV coordinates

# 8 vertex normals
vn 1 1.22435e-15 0
vn 0.909797 -0.415053 0
vn 0 -1 0
vn -0.910126 0.414331 0
vn -1 -0 -0
vn 0 1 0
vn 0 0 1
vn 0 0 -1

# Mesh 'ascii' with 24 faces
g ascii
usemtl DefaultMaterial
f  1//1 2//1 3//1
f  3//1 2//1 4//1
f  5//2 6//2 1//2
f  1//2 6//2 2//2
f  7//3 8//3 5//3
f  5//3 8//3 6//3
f  9//4 10//4 7//4
f  7//4 10//4 8//4
f  11//3 12//3 9//3
f  9//3 12//3 10//3
f  13//5 14//5 11//5
f  11//5 14//5 12//5
f  3//6 4//6 13//6
f  13//6 4//6 14//6
f  5//7 1//7 9//7
f  7//7 5//7 9//7
f  1//7 3//7 9//7
f  9//7 3//7 13//7
f  11//7 9//7 13//7
f  12//8 14//8 10//8
f  10//8 14//8 4//8
f  2//8 10//8 4//8
f  2//8 6//8 10//8
f  10//8 6//8 8//8

